<svg width="74" height="91" viewBox="0 0 74 91" fill="none" xmlns="http://www.w3.org/2000/svg">
<g clip-path="url(#clip0_229_127)">
<path d="M14.6631 8.28038C17.2965 9.46913 19.768 10.9556 22.0235 12.7074C21.842 11.6657 20.9893 6.7752 20.442 3.77785C22.8157 5.34032 28.534 9.07724 30.3576 10.2882C31.0865 8.09809 33.7655 0.900294 33.7655 0.900294C33.7655 0.900294 38.5102 8.10591 39.2418 9.3038C40.276 8.38194 45.8733 2.39245 47.3338 0.895081C47.6391 4.29346 47.8839 9.24651 48.0022 9.93921C49.7696 7.73632 51.8126 5.74439 54.0863 4.00701C52.5048 6.94447 51.7732 10.9757 51.4101 14.2595C47.771 13.2668 44.0026 12.7627 40.2155 12.7621C33.0054 12.7527 25.9172 14.5226 19.6498 17.8974C18.6156 14.7308 16.9736 10.8142 14.6631 8.28038ZM71.7309 70.144L68.4468 66.6883C67.5336 75.9616 62.6707 83.912 53.8443 89.4405L52.4443 84.4302C44.8996 89.5577 32.0629 92.8389 20.9893 86.964C22.3894 80.3391 23.5446 73.5997 20.9893 65.5373C14.8447 74.4668 9.43715 78.0371 9.43715 78.0371C5.31137 71.4122 5.66619 58.2223 6.88192 54.3057L0.00561523 56.3213C0.00561523 51.8943 3.41351 42.496 8.27918 37.1966L4.08189 36.5638C7.01198 30.9157 11.3554 26.0311 16.7343 22.3348C15.084 24.8687 15.084 30.7436 19.7764 32.9909C17.7685 29.7071 17.5759 25.6186 19.5948 23.4286C21.7237 21.2385 25.1921 22.0458 27.3815 23.7176C26.7132 21.8739 24.7053 19.5693 21.9053 19.3974C27.3815 16.6891 33.7683 15.249 40.3337 15.249C41.6127 15.249 42.8285 15.3636 43.9837 15.4209C45.9311 16.111 48.7283 18.7047 50.0678 20.3687C50.073 18.9281 49.7187 17.5067 49.0336 16.2204C56.2125 17.8896 59.6809 20.6474 61.0809 21.9807C61.3862 24.9181 62.2966 26.6473 63.5756 29.4701C61.2625 27.0509 55.4231 23.0197 52.5736 22.0979C52.5736 22.0979 52.2683 24.6317 51.3578 25.8426C45.7605 22.0406 43.0843 21.0614 43.0843 21.0614C36.8791 21.6369 33.0449 23.9416 30.8555 25.6707L32.6818 27.1681C29.0319 28.2098 26.5976 31.2566 26.5976 31.2566C26.5976 31.3712 29.8818 31.7774 29.8818 31.7774C29.8818 31.7774 29.5159 35.4075 34.3844 37.7096C38.5101 39.6106 44.3633 37.2487 49.9606 39.3788C46.3106 35.4049 43.8159 33.5612 43.8159 33.5612C42.9941 33.4001 42.1597 33.3034 41.3212 33.2722C40.0422 33.2722 38.0976 33.5612 36.0952 32.7513C35.061 32.405 33.8948 31.7097 33.0531 31.1889C33.0531 31.1889 35.6084 28.6551 39.3793 28.1368C39.3793 28.1368 42.7872 29.0014 45.4635 30.9024C47.2266 29.2332 49.1134 29.3399 49.1134 29.3399C49.1134 29.3399 47.2871 31.0092 47.8344 32.9102C49.8085 34.6308 51.6773 36.4567 53.4317 38.3789C56.3528 36.8164 62.8 37.1679 64.1395 38.6679C62.4892 36.5846 60.0137 34.9232 58.1764 33.4831C57.9948 32.6758 55.8632 30.0274 55.6211 29.7384C56.9489 30.2111 58.1828 30.8925 59.2711 31.754C59.9251 30.9139 60.874 30.3221 61.9473 30.0847C63.2263 31.1264 63.5289 32.6888 63.4079 32.9649C63.0869 33.3748 62.671 33.7098 62.1921 33.944L65.2947 37.1705L65.6 34.8086C72.8256 44.5689 76.7809 55.9176 71.7309 70.144ZM58.1021 49.1183V44.1079C56.3173 43.5062 54.6513 42.626 53.1732 41.5038C48.0627 42.1939 41.918 47.0923 41.918 47.0923C41.918 47.0923 44.0469 50.837 46.2996 54.9255C50.3154 55.3395 56.2758 50.6183 58.1021 49.1183ZM63.2126 58.2197C62.8605 56.7351 62.1016 55.3644 61.0122 54.2458L57.0789 54.3552C57.0789 54.3552 51.6631 58.6754 48.4395 58.7822L51.1901 63.6206C53.0164 63.2743 56.119 61.8915 57.4557 60.5113C57.9963 62.3472 58.222 64.2534 58.1241 66.1571C59.9257 65.0764 62.4204 62.428 63.2126 58.2197ZM64.8629 41.6314C63.6943 42.5399 62.473 43.3858 61.2047 44.1652V49.1756C62.6652 50.6729 64.0652 51.9411 65.1599 54.1859C67.1678 50.8474 66.681 45.8371 64.8546 41.6314H64.8629Z" fill="white"/>
</g>
<defs>
<clipPath id="clip0_229_127">
<rect width="74" height="89.1887" fill="white" transform="translate(0 0.90564)"/>
</clipPath>
</defs>
</svg>
