<svg width="95" height="98" viewBox="0 0 95 98" fill="none" xmlns="http://www.w3.org/2000/svg">
<g clip-path="url(#clip0_229_123)">
<path d="M0 77.7244H95V0.157227H0V77.7244Z" fill="white"/>
<path d="M83.9809 27.4952C82.9397 27.4945 81.9216 27.8109 81.0555 28.4043C80.1895 28.9978 79.5143 29.8417 79.1155 30.8292C78.7167 31.8167 78.6122 32.9035 78.8152 33.952C79.0181 35.0005 79.5195 35.9637 80.2557 36.7196C80.992 37.4755 81.9301 37.9902 82.9514 38.1986C83.9727 38.407 85.0312 38.2997 85.993 37.8902C86.9549 37.4808 87.7768 36.7876 88.3549 35.8985C88.9329 35.0093 89.2411 33.9641 89.2403 32.895C89.2375 31.4638 88.6824 30.0921 87.6967 29.0801C86.711 28.068 85.3749 27.4982 83.9809 27.4952ZM77.8691 40.8197C77.9235 41.0096 77.7494 41.1325 77.4084 41.4044L77.2017 41.5161L77.2778 41.6613C77.3214 41.7395 77.2452 41.8848 77.1037 41.9518L76.7882 42.1194C76.6467 42.1864 76.4944 42.1752 76.4508 42.0858L76.3856 41.9518L75.9902 42.1529L76.0555 42.2869C76.099 42.3763 76.0119 42.5104 75.8705 42.5774L75.5549 42.7338C75.4026 42.8009 75.2502 42.7785 75.1922 42.6891L75.1378 42.5662C73.9227 43.1509 72.5697 43.7691 71.1696 44.4282L71.2458 44.6182C71.2893 44.6964 71.2023 44.8304 71.0608 44.9086L70.7453 45.0539C70.6038 45.1209 70.4514 45.0986 70.4079 45.0092L70.3318 44.8304L69.8711 45.0539L69.9582 45.2326C70.0017 45.3332 69.9146 45.4672 69.7732 45.5343L69.4576 45.6795C69.3161 45.7465 69.1638 45.7354 69.1203 45.6348L69.0441 45.4561C68.3985 45.7242 67.7093 45.8285 67.2087 44.8602C66.9911 44.4096 66.9802 43.3706 66.8134 42.8269C66.7789 42.7382 66.7222 42.6604 66.6489 42.6015C66.5756 42.5426 66.4884 42.5047 66.3962 42.4918C60.23 41.2777 58.1407 42.6258 54.1835 41.6278C52.9466 41.315 52.2683 40.1382 50.7376 40.1382C47.4042 40.0376 46.4067 40.0823 42.7904 39.9371C42.6381 40.4883 42.6163 40.6 42.6163 40.6L29.9066 40.5404L31.8435 41.5272L32.4783 47.2845C32.4783 47.2845 31.9632 47.441 31.8109 47.4633C31.9306 48.6177 32.0503 50.1669 32.1156 51.5597C32.17 52.8184 32.2353 54.1293 32.2244 54.9709C32.2396 55.4854 32.1259 55.9954 31.8941 56.4518C31.6623 56.9083 31.3201 57.296 30.9005 57.5777C30.7916 57.667 30.2983 58.0059 29.7289 58.3523C29.1594 58.6986 28.4811 59.0598 28.1329 59.2386C28.1655 59.395 28.2744 59.5514 28.307 59.678C20.5666 63.5174 10.9762 64.832 7.87136 70.9356C7.50864 71.6432 6.24274 71.2708 6.2101 70.5074C6.2101 70.1611 6.2101 69.5876 6.2101 69.2822H6.0904C5.99247 69.2822 5.9163 69.137 5.92718 68.9805V68.6081C5.92718 68.4406 6.02511 68.3177 6.12304 68.3177H6.25362C6.29583 67.9659 6.36127 67.6176 6.4495 67.275L6.3298 67.2303C6.24274 67.1967 6.2101 67.0403 6.26451 66.8839L6.37332 66.5488C6.43861 66.3924 6.54743 66.303 6.64536 66.3365L6.76506 66.37C7.31277 65.0443 8.38279 64.4633 8.87609 63.2158L8.79992 63.1823C8.70199 63.1488 8.66934 62.9924 8.72375 62.836L8.83256 62.5008C8.89785 62.3556 9.01755 62.255 9.1046 62.2885L9.19166 62.3109C9.26783 62.1321 9.35488 61.9385 9.45282 61.7374L9.344 61.6592C9.25695 61.6033 9.25695 61.4469 9.344 61.3128L9.52899 61.0112C9.61604 60.8771 9.7575 60.8101 9.83367 60.866L9.8772 60.8883H9.9316C9.95337 60.8883 9.96425 60.8883 9.98602 60.866C10.0377 60.8109 10.0922 60.7587 10.1492 60.7096C10.3864 60.5315 10.6717 60.4336 10.9655 60.4296C11.2593 60.4256 11.547 60.5157 11.7887 60.6872C12.2712 60.9889 14.1718 62.1023 15.9963 60.4079C19.0141 57.6335 22.547 53.8537 25.2021 53.7271C24.4767 52.122 23.2326 48.789 23.0911 47.5527L22.1952 47.3627C21.7345 46.3424 20.5992 41.6055 20.28 38.0528C20.28 38.0528 19.9173 34.2133 20.28 32.8652C20.0733 32.8429 19.6997 33.1557 19.5908 33.1557C19.1084 31.9305 20.679 21.6113 22.246 18.5837L24.6399 17.608C24.3896 17.5745 22.6595 17.4963 18.1109 17.1127C15.5719 19.4142 12.6339 21.9055 11.1467 23.2648C10.8964 23.4547 10.4684 24.9257 10.4684 24.9257C10.4684 24.9257 9.71398 25.6109 9.01755 26.1062C8.08899 26.7802 5.8365 27.2867 5.35408 26.5009C5.23438 26.311 5.25614 26.2216 5.35408 26.1062C5.7168 25.7338 7.01534 25.0858 7.46511 24.2442C6.73967 24.6166 5.94531 24.989 5.31055 24.9406C5.03851 24.9406 4.9043 24.233 5.25614 24.1101C6.20647 23.693 6.97181 23.5143 7.5304 22.695C8.08899 21.8757 8.73463 21.3916 9.60878 21.3693C9.60878 21.3693 13.8417 15.7013 16.3336 13.0052C17.0228 12.2604 18.3032 12.5099 18.3032 12.5099L18.5208 11.6459C18.5208 11.6459 27.0701 10.6032 31.0492 11.9587C30.9948 9.46737 32.0829 6.19025 35.8552 6.19025C37.803 6.19025 40.6649 7.9517 41.0494 10.0967C41.1691 10.7596 40.7991 11.2139 40.5996 12.0257C40.2623 13.2956 40.7302 14.6847 40.5996 15.1241C40.4908 15.4965 40.0845 15.4593 39.7472 15.9546C39.444 16.4363 39.1807 16.9433 38.9601 17.4702L38.445 18.6619L35.779 18.4608C34.8069 20.617 32.8047 25.0262 32.1047 29.3833C34.2048 29.5732 43.6827 30.9772 43.6827 30.9772L43.9112 31.7741C43.9112 31.7741 47.9011 32.2694 51.1656 33.8633C51.8911 34.042 53.7337 33.7627 54.9379 34.3362C55.025 34.2803 55.2208 34.0793 55.3006 34.0234C59.5662 35.3715 63.0846 37.6617 67.2087 38.6821C67.2087 38.6821 69.1239 39.1662 69.7768 39.3003C70.8634 39.5173 71.9622 39.6641 73.0667 39.7397C74.3906 39.8403 75.1233 39.8179 76.0845 39.8738C76.7628 39.9185 77.5934 39.8068 77.8654 40.8271" fill="black"/>
</g>
<defs>
<clipPath id="clip0_229_123">
<rect width="95" height="97.3899" fill="white" transform="translate(0 0.157227)"/>
</clipPath>
</defs>
</svg>
