<svg width="94" height="90" viewBox="0 0 94 90" fill="none" xmlns="http://www.w3.org/2000/svg">
<path d="M26.7912 0.157227H49.5421C39.5143 14.4238 29.4708 28.6789 19.4408 42.9431C25.992 42.9443 32.542 42.942 39.0932 42.9454C29.1153 48.0665 19.1374 53.1876 9.15723 58.3053C8.48139 57.2143 7.64707 56.2365 6.90331 55.1941C5.37391 53.1403 3.84338 51.0877 2.31397 49.034C0.817401 47.0102 -0.00673286 44.482 5.9451e-05 41.9469C-0.00786491 39.4694 0.776647 36.9978 2.20756 34.9948C10.4036 23.3834 18.5884 11.764 26.7912 0.157227ZM69.2884 0.157227H94C77.6634 23.8879 61.3177 47.6129 44.9799 71.3424C52.6427 71.3447 60.3067 71.3401 67.9696 71.3447C56.2796 77.3481 44.5882 83.3485 32.8952 89.3459C30.3492 85.8964 27.7512 82.4862 25.1837 79.0529C24.5848 78.2875 24.0528 77.4656 23.6486 76.5766C22.2947 73.664 22.2437 70.1729 23.4743 67.2095C24.1479 65.5044 25.3343 64.0971 26.3271 62.5848C40.6498 41.7772 54.9567 20.958 69.2884 0.157227Z" fill="white"/>
</svg>
