<svg width="68" height="110" viewBox="0 0 68 110" fill="none" xmlns="http://www.w3.org/2000/svg">
<path d="M59.0379 3.03135C54.5293 4.30911 42.6723 7.59611 32.6874 10.3646C22.7026 13.1099 14.4271 15.4988 14.2643 15.6423C14.1015 15.809 12.8986 19.0034 11.5827 22.7904L9.1769 29.6514L15.5802 29.7718L22.0062 29.8921L21.1289 32.9662C20.645 34.6467 19.1889 39.8735 17.891 44.5586C13.7759 59.4196 1.48023 103.641 1.01898 105.252C0.0241079 108.683 -0.0889425 109.275 0.0467213 109.322C0.137164 109.368 10.122 109.345 22.2594 109.275L44.3093 109.155L45.2092 105.84C47.3798 97.7941 47.7733 96.3497 47.8682 96.0673C47.9587 95.8543 44.8881 95.7849 32.9362 95.7849C24.6607 95.7849 17.891 95.7386 17.891 95.6923C17.891 95.646 18.2166 94.5071 18.5829 93.1599C19.6908 89.2572 19.8763 88.5442 21.0113 84.4285C21.5901 82.2758 22.282 79.836 22.5126 78.9842C23.2045 76.5722 23.7608 74.5352 25.3797 68.6926C26.2118 65.688 28.7984 56.3178 31.159 47.8688C37.3091 25.6977 37.7703 23.9941 37.7703 23.7117C37.7703 23.4756 47.5698 20.7765 48.3566 20.7765C48.5194 20.7765 48.6098 20.8691 48.542 20.9663C48.4742 21.0867 48.1034 22.3367 47.7326 23.758C46.5749 28.1098 42.4417 43.517 41.9533 45.267C41.0986 48.3919 39.1315 55.6789 36.685 64.7899C32.5246 80.4054 31.2991 85.0211 31.2991 85.2109C31.2991 85.3035 34.442 85.3545 38.2813 85.3313L45.2635 85.2619L45.4263 84.6693C45.5167 84.336 46.3262 81.3082 47.2532 77.924C48.1531 74.5398 49.6816 68.8871 50.6493 65.3825C51.599 61.8547 52.5215 58.4474 52.6843 57.8085C53.1682 55.9381 57.4461 40.2022 59.9649 30.9523C60.589 28.6792 61.6743 24.6329 62.3933 21.9617C63.9173 16.3043 65.1201 11.8831 66.6712 6.11001C68.2404 0.360081 68.1907 0.665633 67.6842 0.688781C67.4309 0.711929 63.5464 1.75358 59.0379 3.03135Z" fill="white"/>
</svg>
