<svg width="368" height="368" viewBox="0 0 368 368" fill="none" xmlns="http://www.w3.org/2000/svg">
<path d="M314.106 53.8933C279.353 19.1389 233.147 0 183.998 0C134.849 0 88.6442 19.1396 53.8919 53.8933C19.1396 88.6463 0 134.853 0 184.001C0 233.15 19.1389 279.356 53.8919 314.109C88.6442 348.861 134.85 368 183.998 368C233.146 368 279.352 348.861 314.106 314.108C348.86 279.356 367.999 233.15 367.999 184.001C367.999 134.852 348.86 88.6463 314.106 53.8933ZM255.673 52.9769C258.308 50.393 260.986 47.7653 263.48 45.1749C273.862 51.1419 283.509 58.2453 292.264 66.3054C292.221 66.3643 292.175 66.4312 292.137 66.4793C290.55 66.3255 288.407 65.6233 286.15 64.8823C281.782 63.4498 276.342 61.6687 270.037 62.1733C263.891 62.6671 258.735 65.2064 254.591 67.2462C252.672 68.1907 249.484 69.7612 248.387 69.7669C247.267 69.2293 244.942 66.2544 244.018 65.0656C246.886 61.5947 251.348 57.2197 255.673 52.9769ZM133.511 32.1684C136.366 40.8847 139.627 49.11 142.819 56.9372C145.443 63.3679 148.416 70.6553 147.808 76.6295C147.561 79.0524 147.138 80.2326 146.929 80.6926C145.86 81.0355 143.307 81.2497 141.564 81.3948C136.085 81.852 128.581 82.478 121.637 87.354C120.273 88.3107 119.051 89.2666 117.867 90.1909C115.873 91.7484 113.81 93.3599 112.514 93.7228C111.233 94.0815 108.667 93.789 106.187 93.5065C104.36 93.2988 102.29 93.0623 100.107 92.9904C93.4166 92.7648 77.0572 95.6117 69.253 105.804C65.2273 111.061 64.0701 117.421 65.9942 123.716C67.4216 128.385 70.4246 131.568 72.8812 133.821C83.6215 143.668 98.3408 150.639 113.266 152.949C115.349 153.271 117.333 153.513 119.251 153.749C129.607 155.016 132.526 155.86 135.192 160.664C136.003 162.127 136.729 164.049 137.498 166.085C138.459 168.632 139.548 171.517 141.134 174.426C146.245 183.799 155.06 189.302 164.122 188.775C170.867 188.387 175.674 184.99 179.185 182.509C180.411 181.643 181.678 180.747 182.424 180.436C183.844 179.845 187.26 180.469 191.41 183.235C195.46 185.936 198.238 189.078 199.23 192.083C199.946 194.257 199.476 196.733 198.53 197.533L176.551 216.306C170.902 221.131 160.388 230.111 160.062 243.667C159.969 247.568 160.723 251.079 161.387 254.177C161.517 254.778 161.673 255.506 161.81 256.208C159.75 256.713 157.233 257.359 154.604 258.686C141.259 265.424 140.059 280.791 139.343 289.973C139.133 292.656 138.597 294.739 138.06 296.158C137.761 295.598 137.485 294.933 137.295 294.193C136.78 292.181 136.517 289.746 136.239 287.167C135.786 282.96 135.271 278.192 133.499 273.281C131.218 266.958 127.433 261.989 124.093 257.606C121.185 253.789 118.674 250.492 117.953 247.447C117.411 245.156 117.669 241.918 117.94 238.488C118.354 233.286 118.823 227.39 117.08 221.05C114.601 212.031 108.787 205.931 103.658 200.55C100.757 197.506 98.0159 194.63 96.5569 191.844C95.0992 189.064 95.2049 186.086 95.5168 181.062C95.8151 176.251 96.1867 170.264 94.0506 164.005C91.7362 157.226 86.4843 153.466 82.9646 150.945C73.7229 144.329 65.067 136.795 57.2369 128.551C53.3341 124.442 49.5362 120.013 48.1828 115.464C47.7703 114.077 47.4842 113.031 47.2614 112.211C46.4485 109.236 45.7535 107.378 44.5797 105.58C63.945 71.2856 95.5916 44.8112 133.511 32.1684ZM183.998 344C95.7741 344 23.9998 272.224 23.9998 184.001C23.9998 167.002 26.6742 150.618 31.6077 135.236C34.1694 138.901 37.0616 142.16 39.836 145.08C48.7104 154.423 58.5206 162.963 69.0381 170.493C69.8179 171.051 70.9284 171.846 71.507 172.366C71.9023 174.134 71.7435 176.679 71.5645 179.578C71.1836 185.721 70.661 194.134 75.3006 202.986C78.3229 208.754 82.5542 213.193 86.2874 217.11C89.9228 220.924 93.0623 224.218 93.9399 227.412C94.5652 229.689 94.2993 233.04 94.0168 236.587C93.6287 241.473 93.1881 247.013 94.5976 252.972C96.4922 260.981 101.014 266.916 105.003 272.152C107.518 275.452 109.893 278.571 110.924 281.426C111.718 283.629 112.039 286.599 112.378 289.742C112.718 292.894 113.104 296.466 114.045 300.145C116.867 311.168 126.016 321.745 138.362 321.744C139.019 321.744 139.688 321.714 140.364 321.652C153.148 320.484 161.926 309.062 163.271 291.841C163.489 289.053 164.063 281.705 165.484 280.085C165.924 279.909 166.996 279.647 167.791 279.453C171.172 278.625 176.282 277.373 180.504 273.049C188.28 265.085 186.136 255.101 184.855 249.136C184.469 247.34 184.032 245.303 184.057 244.241C184.125 241.399 189.948 236.426 192.14 234.553L214.073 215.818C222.613 208.597 225.807 196.035 222.022 184.562C219.319 176.371 213.338 169.006 204.722 163.262C194.093 156.177 182.601 154.361 173.197 158.279C169.999 159.611 167.414 161.438 165.336 162.906C164.707 163.351 163.879 163.937 163.204 164.364C162.895 164.019 162.537 163.542 162.206 162.934C161.415 161.484 160.705 159.601 159.953 157.607C158.962 154.983 157.84 152.009 156.179 149.016C147.29 132.998 132.77 131.221 122.168 129.925C120.356 129.703 118.644 129.494 116.937 129.23C108.012 127.849 98.9331 123.93 91.9633 118.538C94.5178 117.62 97.64 116.912 99.3205 116.977C100.537 117.018 101.962 117.18 103.473 117.352C107.802 117.846 113.187 118.459 118.992 116.831C124.852 115.189 129.172 111.815 132.643 109.103C133.634 108.33 134.569 107.599 135.431 106.994C137.056 105.854 140.216 105.59 143.562 105.311C151.894 104.615 169.233 103.168 171.687 79.0589C172.902 67.1305 168.545 56.4513 165.044 47.8702C162.132 40.7316 159.307 33.6461 156.841 26.3142C165.671 24.8005 174.742 24.0005 183.999 24.0005C203.861 24.0005 222.884 27.6496 240.448 34.293C239.922 34.8105 239.395 35.3273 238.869 35.8426C233.536 41.0737 228.02 46.4837 224.224 51.3978C222.619 53.4757 219.934 56.9523 219.142 61.9591C217.8 70.4533 222.879 76.9788 225.049 79.7647C228.271 83.9069 233.668 90.8399 242.581 93.063C244.572 93.559 246.494 93.7717 248.338 93.7717C255.054 93.7717 260.767 90.9592 265.196 88.7778C267.746 87.5222 270.383 86.2234 271.959 86.0969C273.46 85.974 276.109 86.8473 278.676 87.6882C282.423 88.9173 286.671 90.3088 291.674 90.4906C291.976 90.5021 292.274 90.5072 292.573 90.5072C298.786 90.5064 304.302 88.141 308.674 83.8429C319.299 97.042 327.875 111.953 333.914 128.095C333.059 128.117 332.188 128.129 331.41 128.139C329.058 128.168 326.392 128.202 323.487 128.425C316.785 128.94 311.535 126.994 304.887 124.531C300.323 122.839 295.15 120.922 289.084 119.716C272.738 116.468 255.972 125.379 246.369 142.42C243.572 147.382 230.198 172.931 241.578 188.606C245.845 194.483 251.553 197.905 256.141 200.653C262.296 204.343 268.66 208.157 275.871 211.067C277.406 211.686 278.926 212.248 280.395 212.79C284.768 214.404 289.29 216.073 290.908 218.288C291.814 219.529 292.76 222.323 292.115 228.584C291.683 232.772 290.007 237.343 288.232 242.181C283.861 254.103 277.873 270.431 291.904 286.462C294.415 289.331 297.249 291.76 300.325 293.737C271.132 324.665 229.782 344 183.998 344ZM309.963 270.657C305.853 265.96 306.402 262.34 310.764 250.444C312.865 244.713 315.247 238.218 315.986 231.044C317.148 219.774 315.283 210.97 310.284 204.129C304.394 196.068 295.695 192.856 288.705 190.276C287.34 189.772 286.051 189.296 284.847 188.811C279.382 186.605 274.084 183.431 268.476 180.069C265.6 178.346 262.631 176.566 261.171 174.735C260.321 171.787 262.791 162.16 267.275 154.202C270.894 147.779 277.591 141.899 284.403 143.255C288.597 144.089 292.457 145.52 296.545 147.035C304.434 149.959 313.376 153.27 325.326 152.354C327.462 152.19 329.622 152.162 331.71 152.136C334.677 152.1 337.7 152.06 340.705 151.624C342.863 162.084 343.998 172.912 343.998 184.001C343.999 217.68 333.531 248.953 315.69 274.76C313.545 273.901 311.607 272.535 309.963 270.657Z" fill="#FBFBFB"/>
</svg>
